<svg width="369" height="512" viewBox="0 0 369 512" fill="none" xmlns="http://www.w3.org/2000/svg">
<path d="M132.752 178.31H236.255M132.752 294.792C113.02 306.188 97.598 323.78 88.8788 344.837C80.1595 365.895 78.6297 389.242 84.5268 411.258C90.4239 433.274 103.418 452.729 121.495 466.604C139.571 480.479 161.719 488 184.503 488C207.288 488 229.436 480.479 247.512 466.604C265.588 452.729 278.583 433.274 284.48 411.258C290.377 389.242 288.847 365.895 280.128 344.837C271.409 323.78 255.987 306.188 236.255 294.792V74.7699C236.255 61.0397 230.803 47.8718 221.097 38.1631C211.392 28.4543 198.229 23 184.503 23C170.778 23 157.615 28.4543 147.909 38.1631C138.204 47.8718 132.752 61.0397 132.752 74.7699V294.792Z" stroke="white" stroke-width="45" stroke-linecap="round" stroke-linejoin="round"/>
</svg>
