<svg width="369" height="512" viewBox="0 0 369 512" fill="none" xmlns="http://www.w3.org/2000/svg">
<path d="M337.435 225.131L201.67 8.94006C199.701 6.17539 197.099 3.92159 194.081 2.36648C191.064 0.811367 187.718 0 184.324 0C180.929 0 177.583 0.811367 174.566 2.36648C171.549 3.92159 168.946 6.17539 166.977 8.94006L30.5977 226.155C11.651 256.717 1.09705 291.735 0 327.676C0 376.562 19.4197 423.446 53.9871 458.013C88.5545 492.58 135.438 512 184.324 512C233.209 512 280.093 492.58 314.66 458.013C349.227 423.446 368.647 376.562 368.647 327.676C367.47 291.34 356.702 255.962 337.435 225.131ZM184.324 471.039C146.316 470.99 109.88 455.871 83.0047 428.995C56.1295 402.12 41.0096 365.684 40.9608 327.676C42.0494 299.036 50.6523 271.187 65.9059 246.922L85.0551 216.406L291.375 422.726C277.974 437.908 261.501 450.068 243.045 458.401C224.589 466.734 204.573 471.028 184.324 471.039Z" fill="white"/>
</svg>
